<?xml version="1.0" encoding="UTF-8" standalone="no"?>
<svg width="1440px" height="1024px" viewBox="0 0 1440 1024" version="1.1" xmlns="http://www.w3.org/2000/svg" xmlns:xlink="http://www.w3.org/1999/xlink">
    <defs></defs>
    <g id="Page-1" stroke="none" stroke-width="1" fill="none" fill-rule="evenodd">
        <g id="Desktop-HD" fill="#FCFFFD">
            <g id="Imported-Layers" transform="translate(40.000000, 96.000000)">
                <g id="Left-Side" transform="translate(0.000000, 1.000000)">
                    <path d="M159.586645,464.528956 C165.531322,467.60979 170.26524,469.833393 174.786104,472.441452 C224.619546,501.171656 274.572504,529.704438 324.052591,559.026911 C331.088511,563.198765 337.713917,570.352742 341.294234,577.698946 C368.019301,632.45778 393.356929,687.902399 420.617225,742.391076 C425.569391,752.293385 436.102486,761.515105 446.292619,766.149344 C458.566508,771.729135 471.557499,766.258446 480.708353,755.659962 C490.238544,744.62507 492.348281,731.782201 486.27889,718.497729 C475.049477,693.913402 463.227675,669.599233 451.702068,645.15518 C449.685866,640.874223 447.924288,636.473774 444.468684,628.478153 C464.958075,640.230002 482.246486,650.090748 499.488129,660.03462 C526.743228,675.7609 553.915185,691.64304 581.232641,707.260218 C602.989953,719.703047 623.250702,715.874084 634.022832,697.607285 C645.153513,678.732632 638.450162,659.166999 616.038104,646.137098 C576.50392,623.163325 536.855416,600.38178 497.274464,577.480742 C492.691243,574.831121 488.258717,571.921733 480.043214,566.840695 C506.066767,564.601505 528.18263,562.710403 550.293297,560.788129 C560.088504,559.936094 569.951264,559.473709 579.658133,558.024211 C598.827639,555.156386 611.434097,539.383348 609.994695,520.851586 C608.508526,501.706776 593.085621,487.585854 572.809282,488.806758 C536.486472,490.993994 500.220821,494.199516 463.939582,497.088123 C435.998558,499.311726 408.083517,501.914589 380.121708,503.821277 C375.065614,504.169365 369.120937,503.197837 364.797535,500.724857 C309.741715,469.241125 197.93605,403.670798 195.727582,401.613445 C220.82098,387.030139 245.358364,372.71699 269.947712,358.486967 C299.728259,341.248844 329.332129,323.662634 359.528389,307.172639 C366.766969,303.218989 376.198429,300.844721 384.367164,301.411013 C439.797124,305.260756 495.159531,310.102809 550.54792,314.586383 C557.41236,315.142284 564.287192,315.698185 571.167221,315.885217 C592.701088,316.461899 608.321455,303.535905 609.999891,283.94949 C611.662738,264.633234 598.198875,248.205583 576.987185,245.924831 C549.617765,242.973881 522.102846,241.368522 494.650284,239.176091 C491.241448,238.905933 487.837809,238.599408 480.287445,237.960382 C487.380526,233.409268 491.454501,230.557029 495.741528,228.073659 C537.437412,203.930936 579.283992,180.042784 620.829181,155.645489 C635.841571,146.8342 641.900569,131.767728 637.972093,116.831139 C633.903315,101.35943 622.112691,90.2621937 606.565073,90.4076631 C598.198875,90.4855932 589.042825,93.3326369 581.663942,97.4629285 C541.360691,120.062637 501.504331,143.462428 461.471293,166.545302 C456.981607,169.132579 452.351618,171.475676 444.037383,175.948859 C458.587293,145.202865 471.993996,118.623529 483.633924,91.2908701 C487.427293,82.3912607 489.204461,71.0186717 487.328562,61.6982401 C484.371812,46.9954411 472.825419,38.8023972 457.584389,37.21782 C442.177074,35.6124613 429.186083,42.9119075 421.869556,58.087482 C403.734133,95.7172958 383.042083,132.458707 368.845528,171.543215 C350.621766,221.719764 318.762659,255.177723 270.711582,277.569619 C233.863935,294.740202 199.702825,317.672412 164.320562,338.001759 C163.53071,338.453753 59,402.683684 59,402.683684" id="Fill-7"></path>
                </g>
                <g id="Right-side" transform="translate(1015.723040, 404.000000) scale(-1, 1) translate(-1015.723040, -404.000000) translate(676.723040, 0.000000)">
                    <path d="M159.78413,466.345276 C165.728807,469.42611 170.462724,471.649713 174.983589,474.257772 C224.81703,502.987976 274.769989,531.520758 324.250075,560.84323 C331.285996,565.015085 337.911402,572.169061 341.491719,579.515266 C368.216785,634.2741 393.554414,689.718719 420.81471,744.207396 C425.766875,754.109705 436.299971,763.331425 446.490104,767.965664 C458.763992,773.545454 471.754983,768.074766 480.905837,757.476282 C490.436028,746.44139 492.545765,733.598521 486.476374,720.314048 C475.246962,695.729722 463.42516,671.415552 451.899553,646.9715 C449.883351,642.690543 448.121773,638.290094 444.666169,630.294473 C465.15556,642.046322 482.443971,651.907068 499.685614,661.85094 C526.940713,677.57722 554.11267,693.45936 581.430126,709.076538 C603.187437,721.519366 623.448187,717.690404 634.220317,699.423605 C645.350998,680.548952 638.647646,660.983319 616.235589,647.953418 C576.701405,624.979645 537.0529,602.1981 497.471949,579.297061 C492.888728,576.64744 488.456201,573.738053 480.240699,568.657015 C506.264252,566.417825 528.380115,564.526723 550.490782,562.604449 C560.285989,561.752414 570.148749,561.290029 579.855618,559.840531 C599.025124,556.972705 611.631582,541.199667 610.19218,522.667906 C608.70601,503.523096 593.283106,489.402174 573.006767,490.623078 C536.683956,492.810314 500.418306,496.015836 464.137066,498.904442 C436.196043,501.128046 408.281002,503.730909 380.319193,505.637597 C375.263099,505.985684 369.318421,505.014157 364.99502,502.541177 C309.9392,471.057445 198.133535,405.487118 195.925067,403.429765 C221.018465,388.846459 245.555848,374.53331 270.145196,360.303286 C299.925744,343.065164 329.529614,325.478954 359.725874,308.988959 C366.964454,305.035309 376.395913,302.661041 384.564648,303.227332 C439.994609,307.077076 495.357016,311.919128 550.745405,316.402703 C557.609845,316.958604 564.484677,317.514504 571.364706,317.701537 C592.898573,318.278219 608.51894,305.352224 610.197376,285.76581 C611.860223,266.449553 598.39636,250.021903 577.18467,247.741151 C549.81525,244.7902 522.300331,243.184842 494.847769,240.99241 C491.438933,240.722253 488.035293,240.415728 480.484929,239.776702 C487.57801,235.225588 491.651985,232.373349 495.939012,229.889979 C537.634897,205.747255 579.481477,181.859103 621.026666,157.461809 C636.039055,148.65052 642.098054,133.584048 638.169578,118.647458 C634.1008,103.17575 622.310176,92.0785135 606.762558,92.2239829 C598.39636,92.3019129 589.240309,95.1489567 581.861427,99.2792483 C541.558176,121.878957 501.701816,145.278747 461.668778,168.361622 C457.179092,170.948899 452.549102,173.291996 444.234868,177.765179 C458.784778,147.019185 472.191481,120.439849 483.831409,93.1071899 C487.624778,84.2075805 489.401946,72.8349914 487.526046,63.5145598 C484.569297,48.8117608 473.022904,40.618717 457.781874,39.0341397 C442.374558,37.4287811 429.383567,44.7282273 422.067041,59.9038018 C403.931618,97.5336156 383.239567,134.275027 369.043012,173.359535 C350.81925,223.536084 318.960144,256.994043 270.909066,279.385938 C234.06142,296.556522 199.90031,319.488732 164.518047,339.818079 C163.728195,340.270073 59.1974847,404.500004 59.1974847,404.500004" id="Fill-7-Copy"></path>
                </g>
            </g>
        </g>
    </g>
</svg>